<svg width="172" height="179" viewBox="0 0 172 179" fill="none" xmlns="http://www.w3.org/2000/svg">
<path d="M114.308 95.4667H110.128L98.2425 83.0355H112.517L134.137 42.2645H58.8258L46.8825 29.8333H141.422C144.408 29.8333 146.628 31.128 148.081 33.7173C149.535 36.3078 149.465 39.1152 147.872 42.1396L122.55 89.8729C121.645 91.6492 120.493 93.0253 119.094 94.0011C117.695 94.9782 116.1 95.4667 114.308 95.4667ZM50.9783 163.958C47.2922 163.958 44.1449 162.593 41.5362 159.862C38.9287 157.13 37.625 153.846 37.625 150.011C37.625 146.175 38.9377 142.9 41.5631 140.185C44.1873 137.471 47.3424 136.115 51.0285 136.115C54.7145 136.115 57.8613 137.481 60.4687 140.213C63.0762 142.944 64.38 146.227 64.38 150.064C64.38 153.9 63.0679 157.174 60.4437 159.888C57.8183 162.602 54.6631 163.958 50.9783 163.958ZM150.62 172.908L104.872 125.673H51.2417C46.4639 125.673 42.9003 123.757 40.5508 119.924C38.2025 116.091 38.1828 111.999 40.4917 107.648L51.3617 87.7604L36.7883 54.4458L7.16666 23.6187L15.6466 14.7917L159.1 164.083L150.62 172.908ZM92.9284 113.242L76.0867 95.3417H61.0367L51.1216 113.242H92.9284ZM122.788 163.958C119.166 163.958 116.03 162.593 113.382 159.862C110.735 157.13 109.412 153.846 109.412 150.011C109.412 146.175 110.735 142.9 113.382 140.185C116.03 137.471 119.166 136.115 122.788 136.115C126.412 136.115 129.548 137.481 132.195 140.213C134.843 142.944 136.167 146.227 136.167 150.064C136.167 153.9 134.843 157.174 132.195 159.888C129.548 162.602 126.412 163.958 122.788 163.958Z" fill="black"/>
</svg>
