<svg width="97" height="84" viewBox="0 0 97 84" fill="none" xmlns="http://www.w3.org/2000/svg">
<path d="M48.5 41.4113C41.9459 41.4113 36.5005 39.4861 32.1638 35.6355C27.8281 31.784 25.6603 26.9479 25.6603 21.1271C25.6603 15.3062 27.8281 10.4701 32.1638 6.61863C36.5005 2.76806 41.9459 0.842773 48.5 0.842773C55.0542 0.842773 60.4996 2.76806 64.8363 6.61863C69.172 10.4701 71.3398 15.3062 71.3398 21.1271C71.3398 26.9479 69.172 31.784 64.8363 35.6355C60.4996 39.4861 55.0542 41.4113 48.5 41.4113ZM0.833374 83.8333V70.6041C0.833374 67.3701 1.75195 64.5403 3.5891 62.115C5.42626 59.6896 7.81803 57.8451 10.7644 56.5812C17.2521 53.9063 23.5907 51.8999 29.7804 50.562C35.9712 49.224 42.211 48.5551 48.5 48.5551C54.7891 48.5551 61.0121 49.2386 67.169 50.6056C73.3259 51.9726 79.6457 53.9702 86.1284 56.5984C89.1612 57.8702 91.5922 59.7139 93.4214 62.1295C95.2516 64.5452 96.1667 67.3701 96.1667 70.6041V83.8333H0.833374ZM10.7644 75.0134H86.2357V70.6041C86.2357 69.3403 85.8305 68.1497 85.0202 67.0323C84.2088 65.9148 83.1909 65.077 81.9665 64.5187C75.9416 61.902 70.2644 60.0574 64.9346 58.985C59.6059 57.9116 54.1277 57.375 48.5 57.375C42.8724 57.375 37.3609 57.9116 31.9657 58.985C26.5704 60.0574 20.8936 61.902 14.9353 64.5187C13.7098 65.077 12.7083 65.9148 11.9308 67.0323C11.1532 68.1497 10.7644 69.3403 10.7644 70.6041V75.0134ZM48.5 32.5928C52.1743 32.5928 55.2444 31.4974 57.7101 29.3067C60.1769 27.1168 61.4103 24.3903 61.4103 21.1271C61.4103 17.8639 60.1769 15.1373 57.7101 12.9475C55.2444 10.7567 52.1743 9.66134 48.5 9.66134C44.8257 9.66134 41.7557 10.7567 39.29 12.9475C36.8232 15.1373 35.5898 17.8639 35.5898 21.1271C35.5898 24.3903 36.8232 27.1168 39.29 29.3067C41.7557 31.4974 44.8257 32.5928 48.5 32.5928Z" fill="black"/>
</svg>
